<svg width="54" height="53" viewBox="0 0 54 53" fill="none" xmlns="http://www.w3.org/2000/svg">
<g opacity="0.7">
<path d="M33.833 33.6938L27.8267 39.7003V11.7972C27.8267 11.3424 27.4579 10.9736 27.0031 10.9736C26.5482 10.9736 26.1795 11.3424 26.1795 11.7972V39.7003L20.173 33.6939C19.8539 33.3857 19.3479 33.3857 19.0287 33.6939C18.7016 34.0099 18.6926 34.5313 19.0085 34.8584L26.4201 42.27C26.4957 42.3457 26.5857 42.4064 26.6859 42.4482C26.7854 42.4897 26.8931 42.5122 27.0031 42.512C27.0206 42.512 27.0362 42.5031 27.0534 42.502C27.1454 42.4963 27.2367 42.483 27.3206 42.4479C27.4211 42.4059 27.5115 42.3449 27.5872 42.2688L34.9975 34.8584C35.3058 34.5392 35.3058 34.0333 34.9975 33.7141C34.6815 33.3869 34.1601 33.3779 33.833 33.6938Z" fill="#02A9F7"/>
<rect x="1.49219" y="1.23535" width="51.0146" height="51.0146" rx="25.5073" stroke="#02A9F7" stroke-width="1.5"/>
</g>
</svg>
