<svg width="228" height="55" viewBox="0 0 228 55" fill="none" xmlns="http://www.w3.org/2000/svg">
<g filter="url(#filter0_d_1_1025)">
<path d="M62.3149 26.2112C62.1083 25.4412 61.3946 24.9153 60.6058 24.9153H45.5991L52.755 5.38225C53.0931 4.46195 52.6235 3.44773 51.7032 3.10966C50.7829 2.77159 49.7687 3.24113 49.4306 4.16144L41.392 26.0797C41.1854 26.6244 41.2793 27.2254 41.5986 27.695C41.9367 28.1645 42.4814 28.4462 43.0448 28.4462H54.3327L29.09 43.9787L42.6692 5.34469C42.688 5.28834 42.7068 5.232 42.7068 5.19444C42.7068 5.17565 42.7067 5.15687 42.7255 5.13809C42.7255 5.10053 42.7443 5.06296 42.7443 5.0254C42.7443 5.00662 42.7443 4.98784 42.7443 4.96905C42.7443 4.93149 42.7443 4.89393 42.7443 4.87515C42.7443 4.85636 42.7443 4.83758 42.7443 4.8188C42.7443 4.76245 42.7443 4.72489 42.7443 4.66855C42.7443 4.64976 42.7443 4.63098 42.7443 4.6122C42.7443 4.57464 42.7443 4.55586 42.7255 4.51829C42.7255 4.49951 42.7255 4.48073 42.7068 4.46195C42.7068 4.42438 42.688 4.4056 42.688 4.36804C42.688 4.34926 42.688 4.33047 42.6692 4.31169C42.6504 4.27413 42.6504 4.23657 42.6316 4.199V4.18022C42.6128 4.12388 42.5941 4.08631 42.5753 4.02997C42.5753 4.01119 42.5565 4.01119 42.5565 3.9924C42.5377 3.95484 42.5189 3.93606 42.5002 3.89849C42.5002 3.87971 42.4814 3.86093 42.4626 3.86093C42.4438 3.82337 42.425 3.80459 42.4062 3.76702C42.3875 3.74824 42.3875 3.72946 42.3687 3.72946C42.3499 3.6919 42.3123 3.67311 42.2936 3.63555C42.2748 3.61677 42.2748 3.59799 42.256 3.59799C42.2184 3.56042 42.1996 3.54164 42.1621 3.50408C42.1433 3.4853 42.1245 3.46651 42.1057 3.44773C42.087 3.42895 42.087 3.42895 42.0682 3.41017C42.0682 3.41017 42.0682 3.41017 42.0494 3.41017C41.9743 3.35382 41.9179 3.31626 41.8428 3.25992C41.824 3.25992 41.824 3.24113 41.8052 3.24113C41.7489 3.20357 41.6738 3.18479 41.6174 3.14722C41.5986 3.14722 41.5798 3.12844 41.5611 3.12844C41.5611 3.12844 41.5423 3.12844 41.5423 3.10966C41.4672 3.09088 41.4108 3.0721 41.3357 3.05332C41.3169 3.05332 41.2981 3.05332 41.2981 3.05332C41.223 3.03453 41.1479 3.03453 41.0915 3.01575C41.0727 3.01575 41.0727 3.01575 41.054 3.01575C40.9788 3.01575 40.8849 3.01575 40.8098 3.01575C40.791 3.01575 40.791 3.01575 40.7722 3.01575C40.6971 3.01575 40.622 3.03453 40.5469 3.05332H40.5281C40.4529 3.0721 40.3778 3.09088 40.3027 3.12844C40.2839 3.12844 40.2651 3.14722 40.2463 3.14722C40.1712 3.18479 40.0961 3.22235 40.0397 3.25992L4.95545 25.197C4.2793 25.6102 3.9788 26.4366 4.18539 27.1879C4.41078 27.9391 5.1057 28.465 5.89453 28.465H20.4692L13.6514 47.5285C13.3133 48.4488 13.8016 49.463 14.722 49.8011C14.9286 49.8762 15.1164 49.9138 15.323 49.9138C16.0555 49.9138 16.7316 49.463 16.9945 48.7305L24.6763 27.3006C24.8641 26.7559 24.789 26.1549 24.4509 25.6853C24.1128 25.2158 23.5869 24.934 23.0047 24.934H12.0925L37.6732 8.96957L24.1128 47.5473C24.094 47.6036 24.0753 47.66 24.0753 47.6975C24.0753 47.7163 24.0753 47.7351 24.0565 47.7539C24.0565 47.7914 24.0377 47.829 24.0377 47.8666C24.0377 47.8853 24.0377 47.9041 24.0377 47.9229C24.0377 47.9605 24.0377 47.998 24.0377 48.0356C24.0377 48.0544 24.0377 48.0732 24.0377 48.0919C24.0377 48.1483 24.0377 48.1859 24.0377 48.2422C24.0377 48.261 24.0377 48.2798 24.0377 48.2985C24.0377 48.3361 24.0377 48.3549 24.0565 48.3925C24.0565 48.4112 24.0565 48.43 24.0753 48.4488C24.0753 48.4864 24.094 48.5051 24.094 48.5427C24.094 48.5615 24.094 48.5803 24.1128 48.5991C24.1316 48.6366 24.1316 48.693 24.1504 48.7305V48.7493C24.1692 48.8057 24.188 48.8432 24.2067 48.8996C24.2067 48.9183 24.2255 48.9183 24.2255 48.9371C24.2443 48.9747 24.2631 49.0123 24.2819 49.031C24.2819 49.0498 24.3006 49.0686 24.3006 49.0686C24.3194 49.1062 24.3382 49.1249 24.357 49.1625C24.3758 49.1813 24.3758 49.1813 24.3946 49.2001C24.4133 49.2376 24.4509 49.2752 24.4697 49.294C24.4885 49.3128 24.4885 49.3315 24.5072 49.3315C24.526 49.3503 24.5636 49.3879 24.5824 49.4067C24.6012 49.4254 24.6199 49.4442 24.6387 49.463C24.6575 49.4818 24.6575 49.4818 24.6763 49.5006C24.6763 49.5006 24.6951 49.5006 24.6951 49.5194C24.7702 49.5757 24.8265 49.6133 24.9017 49.6696C24.9204 49.6696 24.9204 49.6884 24.9392 49.6884C24.9956 49.726 25.0707 49.7447 25.127 49.7823C25.1458 49.7823 25.1646 49.8011 25.1834 49.8011C25.2022 49.8011 25.2022 49.8011 25.2209 49.8199C25.2773 49.8386 25.3524 49.8574 25.4088 49.8762C25.4275 49.8762 25.4275 49.8762 25.4463 49.8762C25.5215 49.895 25.5966 49.895 25.6905 49.9138H25.7093C25.7468 49.9138 25.7656 49.9138 25.8032 49.9138C25.8595 49.9138 25.8971 49.9138 25.9534 49.9138C25.9534 49.9138 25.9534 49.9138 25.9722 49.9138C26.0473 49.9138 26.1413 49.895 26.2164 49.8762H26.2352C26.3103 49.8574 26.4042 49.8386 26.4793 49.8011C26.4793 49.8011 26.4981 49.8011 26.4981 49.7823C26.5732 49.7447 26.6484 49.7072 26.7235 49.6696L61.5636 28.2396C62.2022 27.7889 62.5215 26.9813 62.3149 26.2112Z" fill="#02A9F7"/>
</g>
<g filter="url(#filter1_d_1_1025)">
<path d="M65.8055 19.1941V15.4936H83.2214L71.2373 35.6594H82.3387V39.2581H64.753L76.6692 19.1941H65.8055ZM88.7005 27.3758C88.7005 29.0054 89.04 30.4652 89.719 31.7553C90.4206 33.0227 91.3825 34.0186 92.6047 34.7428C93.8268 35.4671 95.2188 35.8292 96.7804 35.8292C98.3647 35.8292 99.7566 35.4671 100.956 34.7428C102.178 34.0186 103.129 33.0227 103.808 31.7553C104.51 30.4652 104.86 29.0054 104.86 27.3758C104.86 25.7463 104.521 24.2978 103.842 23.0303C103.163 21.7403 102.212 20.7331 100.99 20.0088C99.7906 19.2846 98.3874 18.9225 96.7804 18.9225C95.2188 18.9225 93.8268 19.2846 92.6047 20.0088C91.3825 20.7331 90.4206 21.7403 89.719 23.0303C89.04 24.2978 88.7005 25.7463 88.7005 27.3758ZM84.4569 27.3758C84.4569 25.5878 84.7624 23.947 85.3735 22.4532C85.9846 20.9594 86.8446 19.6694 87.9536 18.583C89.0853 17.474 90.398 16.6139 91.8917 16.0028C93.4081 15.3918 95.0377 15.0862 96.7804 15.0862C98.5684 15.0862 100.209 15.3918 101.703 16.0028C103.197 16.6139 104.498 17.474 105.607 18.583C106.739 19.6694 107.61 20.9594 108.221 22.4532C108.832 23.947 109.138 25.5878 109.138 27.3758C109.138 29.1412 108.832 30.7821 108.221 32.2985C107.61 33.8149 106.75 35.1276 105.641 36.2366C104.532 37.3456 103.219 38.2169 101.703 38.8507C100.209 39.4618 98.5684 39.7673 96.7804 39.7673C95.0151 39.7673 93.3742 39.4618 91.8578 38.8507C90.3414 38.2169 89.0287 37.3456 87.9197 36.2366C86.8333 35.1276 85.9846 33.8149 85.3735 32.2985C84.7624 30.7821 84.4569 29.1412 84.4569 27.3758ZM114.052 15.4936H118.058V39.2581H114.052V15.4936ZM116.429 19.0243V15.4936H121.216C122.936 15.4936 124.429 15.7991 125.697 16.4102C126.987 16.9987 127.983 17.8474 128.684 18.9564C129.386 20.0428 129.737 21.3442 129.737 22.8606C129.737 24.377 129.386 25.6897 128.684 26.7987C127.983 27.9077 126.987 28.7677 125.697 29.3788C124.429 29.9673 122.936 30.2615 121.216 30.2615H116.429V26.7308H121.216C122.596 26.7308 123.705 26.4026 124.543 25.7463C125.38 25.0899 125.799 24.128 125.799 22.8606C125.799 21.5931 125.38 20.6426 124.543 20.0088C123.705 19.3525 122.596 19.0243 121.216 19.0243H116.429ZM134.698 15.4936H138.704V35.6594H148.142V39.2581H134.698V15.4936ZM154.539 39.2581V35.7273H166.523V39.2581H154.539ZM154.539 19.0243V15.4936H166.523V19.0243H154.539ZM154.539 28.2585V24.7957H165.844V28.2585H154.539ZM152.061 15.4936H155.999V39.2581H152.061V15.4936ZM189.822 15.4936H193.76V40.4463L176.412 23.3019V39.2581H172.474V14.3054L189.822 31.4497V15.4936ZM197.672 19.1941V15.4936H214.239V19.1941H207.959V39.2581H203.919V19.1941H197.672ZM218.174 15.4936H222.214V39.2581H218.174V15.4936Z" fill="white"/>
</g>
<defs>
<filter id="filter0_d_1_1025" x="0.951768" y="0.983147" width="64.595" height="53.2525" filterUnits="userSpaceOnUse" color-interpolation-filters="sRGB">
<feFlood flood-opacity="0" result="BackgroundImageFix"/>
<feColorMatrix in="SourceAlpha" type="matrix" values="0 0 0 0 0 0 0 0 0 0 0 0 0 0 0 0 0 0 127 0" result="hardAlpha"/>
<feOffset dy="1.15249"/>
<feGaussianBlur stdDeviation="1.58467"/>
<feComposite in2="hardAlpha" operator="out"/>
<feColorMatrix type="matrix" values="0 0 0 0 0 0 0 0 0 0 0 0 0 0 0 0 0 0 0.25 0"/>
<feBlend mode="normal" in2="BackgroundImageFix" result="effect1_dropShadow_1_1025"/>
<feBlend mode="normal" in="SourceGraphic" in2="effect1_dropShadow_1_1025" result="shape"/>
</filter>
<filter id="filter1_d_1_1025" x="59.367" y="10.4583" width="168.233" height="36.9129" filterUnits="userSpaceOnUse" color-interpolation-filters="sRGB">
<feFlood flood-opacity="0" result="BackgroundImageFix"/>
<feColorMatrix in="SourceAlpha" type="matrix" values="0 0 0 0 0 0 0 0 0 0 0 0 0 0 0 0 0 0 127 0" result="hardAlpha"/>
<feOffset dy="1.53887"/>
<feGaussianBlur stdDeviation="2.69302"/>
<feComposite in2="hardAlpha" operator="out"/>
<feColorMatrix type="matrix" values="0 0 0 0 0 0 0 0 0 0 0 0 0 0 0 0 0 0 0.25 0"/>
<feBlend mode="normal" in2="BackgroundImageFix" result="effect1_dropShadow_1_1025"/>
<feBlend mode="normal" in="SourceGraphic" in2="effect1_dropShadow_1_1025" result="shape"/>
</filter>
</defs>
</svg>
