<svg width="23" height="23" viewBox="0 0 23 23" fill="none" xmlns="http://www.w3.org/2000/svg">
<path d="M18.1992 11.4C18.1992 11.73 17.9292 12 17.5992 12H12.1992C12.1992 12 11.83 12 11.5 12C11.17 12 10.9992 12 10.9992 12H5.59922C5.26922 12 4.99922 11.73 4.99922 11.4C4.99922 11.07 5.26922 10.8 5.59922 10.8H10.9992C10.9992 10.8 11.1466 10.8 11.4766 10.8C11.8066 10.8 11.9766 10.8 11.9766 10.8H12.1992H17.5992C17.9292 10.8 18.1992 11.07 18.1992 11.4ZM22.9992 11.4C22.9992 17.7 17.8992 22.8 11.5992 22.8C5.29922 22.8 0.199219 17.7 0.199219 11.4C0.199219 5.1 5.29922 0 11.5992 0C17.8992 0 22.9992 5.1 22.9992 11.4ZM21.7992 11.4C21.7992 5.76 17.2392 1.2 11.5992 1.2C5.95922 1.2 1.39922 5.76 1.39922 11.4C1.39922 17.04 5.95922 21.6 11.5992 21.6C17.2392 21.6 21.7992 17.04 21.7992 11.4Z" fill="white"/>
</svg>
