<svg width="54" height="44" viewBox="0 0 54 44" fill="none" xmlns="http://www.w3.org/2000/svg">
<g filter="url(#filter0_d_1_815)">
<path d="M50.6073 20.7893C50.4401 20.1659 49.8623 19.7402 49.2238 19.7402H37.0761L42.8687 3.92841C43.1423 3.18343 42.7622 2.36244 42.0173 2.08877C41.2723 1.8151 40.4513 2.1952 40.1776 2.94017L33.6705 20.6828C33.5032 21.1237 33.5792 21.6103 33.8377 21.9903C34.1114 22.3704 34.5523 22.5985 35.0084 22.5985H44.1458L23.7121 35.1719L34.7043 3.898C34.7195 3.85239 34.7347 3.80678 34.7347 3.77637C34.7347 3.76117 34.7347 3.74597 34.7499 3.73076C34.7499 3.70036 34.7651 3.66995 34.7651 3.63954C34.7651 3.62434 34.7651 3.60913 34.7651 3.59393C34.7651 3.56352 34.7651 3.53312 34.7651 3.51791C34.7651 3.50271 34.7651 3.48751 34.7651 3.4723C34.7651 3.42669 34.7651 3.39628 34.7651 3.35067C34.7651 3.33547 34.7651 3.32027 34.7651 3.30506C34.7651 3.27465 34.7651 3.25945 34.7499 3.22904C34.7499 3.21384 34.7499 3.19864 34.7347 3.18343C34.7347 3.15303 34.7195 3.13782 34.7195 3.10741C34.7195 3.09221 34.7195 3.07701 34.7043 3.0618C34.6891 3.0314 34.6891 3.00099 34.6739 2.97058V2.95538C34.6587 2.90977 34.6435 2.87936 34.6283 2.83375C34.6283 2.81854 34.6131 2.81854 34.6131 2.80334C34.5979 2.77293 34.5827 2.75773 34.5675 2.72732C34.5675 2.71212 34.5523 2.69692 34.5371 2.69692C34.5219 2.66651 34.5067 2.6513 34.4915 2.6209C34.4763 2.60569 34.4763 2.59049 34.4611 2.59049C34.4458 2.56008 34.4154 2.54488 34.4002 2.51447C34.385 2.49927 34.385 2.48406 34.3698 2.48406C34.3394 2.45366 34.3242 2.43845 34.2938 2.40805C34.2786 2.39284 34.2634 2.37764 34.2482 2.36244C34.233 2.34723 34.233 2.34723 34.2178 2.33203C34.2178 2.33203 34.2178 2.33203 34.2026 2.33203C34.1418 2.28642 34.0962 2.25601 34.0353 2.2104C34.0201 2.2104 34.0201 2.1952 34.0049 2.1952C33.9593 2.16479 33.8985 2.14958 33.8529 2.11918C33.8377 2.11918 33.8225 2.10397 33.8073 2.10397C33.8073 2.10397 33.7921 2.10397 33.7921 2.08877C33.7313 2.07357 33.6857 2.05836 33.6248 2.04316C33.6096 2.04316 33.5944 2.04316 33.5944 2.04316C33.5336 2.02796 33.4728 2.02796 33.4272 2.01275C33.412 2.01275 33.412 2.01275 33.3968 2.01275C33.336 2.01275 33.26 2.01275 33.1992 2.01275C33.1839 2.01275 33.1839 2.01275 33.1687 2.01275C33.1079 2.01275 33.0471 2.02796 32.9863 2.04316H32.9711C32.9103 2.05836 32.8495 2.07357 32.7886 2.10397C32.7734 2.10397 32.7582 2.11918 32.743 2.11918C32.6822 2.14958 32.6214 2.17999 32.5758 2.2104L4.17539 19.9683C3.62806 20.3027 3.3848 20.9717 3.55204 21.5798C3.73448 22.188 4.29702 22.6137 4.93557 22.6137H16.7336L11.2147 38.0454C10.941 38.7904 11.3363 39.6114 12.0813 39.885C12.2485 39.9459 12.4006 39.9763 12.5678 39.9763C13.1607 39.9763 13.7081 39.6114 13.9209 39.0184L20.1392 21.6711C20.2913 21.2302 20.2304 20.7436 19.9568 20.3636C19.6831 19.9835 19.2574 19.7554 18.7861 19.7554H9.95277L30.6601 6.83231L19.6831 38.0606C19.6679 38.1062 19.6527 38.1518 19.6527 38.1822C19.6527 38.1974 19.6527 38.2126 19.6375 38.2278C19.6375 38.2582 19.6223 38.2887 19.6223 38.3191C19.6223 38.3343 19.6223 38.3495 19.6223 38.3647C19.6223 38.3951 19.6223 38.4255 19.6223 38.4559C19.6223 38.4711 19.6223 38.4863 19.6223 38.5015C19.6223 38.5471 19.6223 38.5775 19.6223 38.6231C19.6223 38.6383 19.6223 38.6535 19.6223 38.6687C19.6223 38.6992 19.6223 38.7144 19.6375 38.7448C19.6375 38.76 19.6375 38.7752 19.6527 38.7904C19.6527 38.8208 19.6679 38.836 19.6679 38.8664C19.6679 38.8816 19.6679 38.8968 19.6831 38.912C19.6983 38.9424 19.6983 38.988 19.7135 39.0184V39.0336C19.7287 39.0792 19.7439 39.1097 19.7591 39.1553C19.7591 39.1705 19.7743 39.1705 19.7743 39.1857C19.7895 39.2161 19.8047 39.2465 19.8199 39.2617C19.8199 39.2769 19.8351 39.2921 19.8351 39.2921C19.8503 39.3225 19.8656 39.3377 19.8808 39.3681C19.896 39.3833 19.896 39.3833 19.9112 39.3985C19.9264 39.4289 19.9568 39.4593 19.972 39.4745C19.9872 39.4897 19.9872 39.5049 20.0024 39.5049C20.0176 39.5202 20.048 39.5506 20.0632 39.5658C20.0784 39.581 20.0936 39.5962 20.1088 39.6114C20.124 39.6266 20.124 39.6266 20.1392 39.6418C20.1392 39.6418 20.1544 39.6418 20.1544 39.657C20.2152 39.7026 20.2608 39.733 20.3217 39.7786C20.3369 39.7786 20.3369 39.7938 20.3521 39.7938C20.3977 39.8242 20.4585 39.8394 20.5041 39.8698C20.5193 39.8698 20.5345 39.885 20.5497 39.885C20.5649 39.885 20.5649 39.885 20.5801 39.9002C20.6257 39.9154 20.6865 39.9306 20.7322 39.9459C20.7474 39.9459 20.7474 39.9459 20.7626 39.9459C20.8234 39.9611 20.8842 39.9611 20.9602 39.9763H20.9754C21.0058 39.9763 21.021 39.9763 21.0514 39.9763C21.097 39.9763 21.1275 39.9763 21.1731 39.9763C21.1731 39.9763 21.1731 39.9763 21.1883 39.9763C21.2491 39.9763 21.3251 39.9611 21.3859 39.9459H21.4011C21.4619 39.9306 21.538 39.9154 21.5988 39.885C21.5988 39.885 21.614 39.885 21.614 39.8698C21.6748 39.8394 21.7356 39.809 21.7964 39.7786L49.9992 22.4313C50.5161 22.0664 50.7746 21.4126 50.6073 20.7893Z" fill="#02A9F7"/>
</g>
<defs>
<filter id="filter0_d_1_815" x="0.934449" y="0.367376" width="52.2891" height="43.1074" filterUnits="userSpaceOnUse" color-interpolation-filters="sRGB">
<feFlood flood-opacity="0" result="BackgroundImageFix"/>
<feColorMatrix in="SourceAlpha" type="matrix" values="0 0 0 0 0 0 0 0 0 0 0 0 0 0 0 0 0 0 127 0" result="hardAlpha"/>
<feOffset dy="0.932928"/>
<feGaussianBlur stdDeviation="1.28278"/>
<feComposite in2="hardAlpha" operator="out"/>
<feColorMatrix type="matrix" values="0 0 0 0 0 0 0 0 0 0 0 0 0 0 0 0 0 0 0.25 0"/>
<feBlend mode="normal" in2="BackgroundImageFix" result="effect1_dropShadow_1_815"/>
<feBlend mode="normal" in="SourceGraphic" in2="effect1_dropShadow_1_815" result="shape"/>
</filter>
</defs>
</svg>
