<svg width="20" height="18" viewBox="0 0 20 18" fill="none" xmlns="http://www.w3.org/2000/svg">
<path d="M10.1922 15.8686C10.0347 16.0261 9.75465 16.0524 9.5709 15.8686C9.48894 15.786 9.44294 15.6744 9.44294 15.558C9.44294 15.4416 9.48894 15.33 9.5709 15.2474L12.5372 12.2811L11.3034 11.0474L8.33715 14.0136C8.1709 14.1886 7.8909 14.1799 7.7159 14.0136C7.63394 13.931 7.58794 13.8194 7.58794 13.703C7.58794 13.5866 7.63394 13.475 7.7159 13.3924L10.6822 10.4261L9.4484 9.19236L6.48215 12.1586C6.32465 12.3161 6.04465 12.3424 5.8609 12.1586C5.78079 12.075 5.73607 11.9637 5.73607 11.848C5.73607 11.7322 5.78079 11.6209 5.8609 11.5374L8.82715 8.57111L7.58465 7.33736L4.6184 10.3036C4.4609 10.4611 4.1809 10.4874 3.99715 10.3036C3.91704 10.22 3.87232 10.1087 3.87232 9.99298C3.87232 9.87722 3.91704 9.76593 3.99715 9.68236L7.82965 5.84986L9.4659 7.47736C10.2972 8.30861 11.7322 8.29986 12.5634 7.47736C13.4209 6.61986 13.4209 5.23736 12.5634 4.37986L10.9359 2.75236L11.1809 2.50736C11.8634 1.82486 12.9747 1.82486 13.6572 2.50736L17.3672 6.21736C18.0497 6.89986 18.0497 8.01111 17.3672 8.69361L10.1922 15.8686ZM18.6009 9.93611C19.2564 9.27871 19.6245 8.38822 19.6245 7.45986C19.6245 6.53149 19.2564 5.64101 18.6009 4.98361L14.8909 1.27361C14.2335 0.618101 13.343 0.25 12.4147 0.25C11.4863 0.25 10.5958 0.618101 9.9384 1.27361L9.6934 1.51861L9.4484 1.27361C8.79101 0.618101 7.90052 0.25 6.97215 0.25C6.04379 0.25 5.1533 0.618101 4.4959 1.27361L1.3984 4.37111C0.806467 4.96102 0.445645 5.74361 0.381427 6.57684C0.317209 7.41007 0.553852 8.23871 1.0484 8.91236L2.31715 7.64361C2.14801 7.31335 2.08822 6.93788 2.14641 6.57141C2.2046 6.20495 2.37777 5.86647 2.6409 5.60486L5.7384 2.50736C6.4209 1.82486 7.53215 1.82486 8.21465 2.50736L11.3297 5.62236C11.4872 5.77986 11.5134 6.05986 11.3297 6.24361C11.1459 6.42736 10.8659 6.40111 10.7084 6.24361L7.82965 3.37361L2.75465 8.43986C1.89715 9.28861 1.89715 10.6799 2.75465 11.5374C3.0959 11.8786 3.5334 12.0886 3.99715 12.1499C4.05843 12.6204 4.27357 13.0574 4.60909 13.3929C4.9446 13.7284 5.38164 13.9436 5.85216 14.0049C5.91343 14.4754 6.12857 14.9124 6.46409 15.2479C6.7996 15.5834 7.23664 15.7986 7.70715 15.8599C7.7684 16.3324 7.9784 16.7611 8.31965 17.1024C8.7309 17.5136 9.28215 17.7411 9.8684 17.7411C10.4547 17.7411 11.0059 17.5136 11.4172 17.1024L18.6009 9.93611Z" fill="#02A9F7"/>
</svg>
