<svg width="30" height="31" viewBox="0 0 30 31" fill="none" xmlns="http://www.w3.org/2000/svg">
<g clip-path="url(#clip0_1_949)">
<path d="M21.6016 15.2086C21.6016 15.5386 21.3316 15.8086 21.0016 15.8086H15.6016V21.2086C15.6016 21.5386 15.3316 21.8086 15.0016 21.8086C14.6716 21.8086 14.4016 21.5386 14.4016 21.2086V15.8086H9.00156C8.67156 15.8086 8.40156 15.5386 8.40156 15.2086C8.40156 14.8786 8.67156 14.6086 9.00156 14.6086H14.4016V9.20859C14.4016 8.87859 14.6716 8.60859 15.0016 8.60859C15.3316 8.60859 15.6016 8.87859 15.6016 9.20859V14.6086H21.0016C21.3316 14.6086 21.6016 14.8786 21.6016 15.2086ZM26.4016 15.2086C26.4016 21.5086 21.3016 26.6086 15.0016 26.6086C8.70156 26.6086 3.60156 21.5086 3.60156 15.2086C3.60156 8.90859 8.70156 3.80859 15.0016 3.80859C21.3016 3.80859 26.4016 8.90859 26.4016 15.2086ZM25.2016 15.2086C25.2016 9.56859 20.6416 5.00859 15.0016 5.00859C9.36156 5.00859 4.80156 9.56859 4.80156 15.2086C4.80156 20.8486 9.36156 25.4086 15.0016 25.4086C20.6416 25.4086 25.2016 20.8486 25.2016 15.2086Z" fill="white"/>
<path d="M451.202 -362.791V142.409H-83.9984V-362.791H451.202ZM453.602 -365.191H-86.3984V144.809H453.602V-365.191Z" fill="white"/>
</g>
<defs>
<clipPath id="clip0_1_949">
<rect width="30" height="30" fill="white" transform="translate(0 0.207031)"/>
</clipPath>
</defs>
</svg>
