<svg width="236" height="118" viewBox="0 0 236 118" fill="none" xmlns="http://www.w3.org/2000/svg">
<path d="M235.653 33.7746L235.545 33.7647C235.19 33.745 234.846 33.7253 234.491 33.7056C233.742 33.6662 232.964 33.6268 232.196 33.6071C227.783 33.5086 223.134 33.6859 217.973 34.139C215.146 34.3853 212.26 34.6906 209.403 35.0452C207.295 35.3013 205.168 35.6165 203.099 35.9219L201.385 36.178C199.819 36.4045 198.253 36.6409 196.687 36.8773C195.121 37.1137 193.555 37.3501 191.988 37.5767C191.407 37.6653 190.816 37.7244 190.245 37.7934C190.068 37.8131 189.89 37.8328 189.713 37.8525C189.812 37.7244 189.92 37.6259 190.038 37.5373L191.24 36.6803C192.373 35.8726 193.545 35.0255 194.707 34.2277L196.342 33.0949C201.178 29.7459 206.192 26.2689 210.802 22.4274C212.654 20.881 214.289 19.4527 215.569 17.6108C216.013 16.9705 216.16 16.3303 216.013 15.7491C215.865 15.168 215.422 14.6755 214.722 14.3209C214.308 14.1042 213.708 13.8678 213.186 13.9466L212.811 13.9958C211.56 14.1731 210.28 14.3603 209.098 14.7937C202.626 17.1971 196.579 21.0189 191.141 26.1704C188.492 28.6723 186.541 31.2628 185.172 34.0799C185.074 34.2966 184.975 34.5133 184.887 34.7202C184.631 35.321 184.384 35.8923 183.931 36.3651C183.517 36.7887 183.123 37.2418 182.739 37.6752C182.316 38.1578 181.882 38.6602 181.419 39.1133C181.144 39.3989 180.779 39.6156 180.434 39.8323C180.385 39.8619 180.346 39.8914 180.297 39.921C180.306 39.9013 180.326 39.8816 180.336 39.8619C180.365 39.8126 180.405 39.7634 180.425 39.724C180.612 39.3989 180.799 39.0837 180.986 38.7685C181.508 37.8919 182.05 36.9758 182.503 36.0401C182.68 35.6756 182.69 35.2816 182.552 34.9073C182.375 34.4641 182.001 34.0996 181.498 33.9026C180.73 33.5973 179.952 33.7943 179.252 34.4838C178.533 35.193 178.001 35.981 177.667 36.8281C178.455 33.4988 179.44 30.4551 180.671 27.5691C180.917 26.9978 181.104 26.4068 181.272 25.8651C181.459 25.2445 181.173 24.6634 180.493 24.2595C179.922 23.9246 179.174 24.033 178.799 24.5156C178.464 24.949 178.189 25.3923 177.982 25.8552C176.465 29.2042 175.362 32.6418 174.702 36.0598C174.534 36.9167 174.111 37.6062 173.667 38.345C173.569 38.5026 173.47 38.6602 173.382 38.8276C172.564 38.0692 171.678 38.2268 170.988 38.4632C169.599 38.9261 168.565 39.8717 167.895 41.2704C167.62 41.8614 167.186 41.9402 166.605 41.9895C166.162 42.0289 165.866 41.8319 165.6 41.3295C165.088 40.3741 164.527 39.8422 163.877 39.724C163.227 39.6058 162.517 39.8914 161.69 40.6006C161.197 41.0242 160.715 41.4379 160.212 41.8516C159.966 42.0486 159.72 42.2456 159.444 42.4721L159.287 42.6002C159.287 42.5706 159.296 42.5509 159.296 42.5214C159.424 41.6546 159.07 40.9355 158.341 40.5809C157.553 40.2066 157.129 40.709 156.755 41.1522L156.696 41.231C156.588 41.3591 156.479 41.4871 156.361 41.6053C155.809 42.1569 155.248 42.7184 154.687 43.27L154.165 43.7822C154.637 42.6494 154.44 41.8122 153.574 41.2113C152.657 40.5809 152.047 41.2409 151.594 41.7235C149.062 40.0096 147.073 41.1424 145.132 42.6987C145.172 42.5706 145.211 42.4623 145.25 42.3539C145.989 40.3445 146.738 38.345 147.486 36.3454C149.299 31.4795 151.17 26.4364 152.973 21.472C153.613 19.699 154.174 17.8669 154.706 16.084C154.943 15.2862 155.189 14.4982 155.435 13.7003C155.553 13.3359 155.652 12.7941 155.15 12.3312C154.677 11.8879 154.194 11.7008 153.751 11.7993C153.337 11.8879 153.002 12.2228 152.776 12.7646C152.165 14.2618 151.525 15.7787 150.894 17.2463C150.5 18.1722 150.106 19.108 149.712 20.0339C149.151 21.3833 148.609 22.7623 148.087 24.1019C146.925 27.0963 145.713 30.1892 144.167 33.0752L144.058 33.2821C141.419 38.2071 138.68 43.3094 135.243 47.8601C134.849 48.3821 134.415 48.8844 133.962 49.4163C133.814 49.5838 133.667 49.7611 133.519 49.9384C133.716 49.3178 133.893 48.6874 134.08 48.0669C134.494 46.6485 134.928 45.1809 135.489 43.7822C137.38 39.0443 139.39 34.2572 141.34 29.6376L142.079 27.8843C142.414 27.0963 141.99 26.6925 141.586 26.4364C141.044 26.0916 140.493 26.2 140.118 26.7417C139.774 27.2244 139.419 27.7366 139.153 28.2783L138.877 28.8398C137.429 31.775 135.932 34.8088 134.524 37.8131C134.425 38.0199 134.327 38.2268 134.238 38.4336C133.667 39.6747 133.076 40.9552 132.17 42.0289C131.825 42.4426 131.49 42.8858 131.165 43.3094C130.81 43.7723 130.446 44.255 130.062 44.7081C129.293 45.6143 128.495 46.4909 127.727 47.338C127.432 47.663 127.146 47.9783 126.87 48.2934C126.732 48.2147 126.594 48.1358 126.476 48.057C126.171 47.8699 125.905 47.7024 125.619 47.6631C124.723 47.5547 123.925 47.9585 123.433 48.7662C123.226 49.1011 122.989 49.2587 122.566 49.3178C119.158 49.8103 115.75 50.3127 112.342 50.8249L111.317 50.9726C110.854 51.0416 110.391 51.1105 109.909 51.1893L109.406 51.2681L109.436 51.1795C109.495 51.012 109.544 50.884 109.593 50.7559C113.888 39.5565 118.429 28.4556 123.078 17.7684C123.62 16.5174 124.132 15.2271 124.595 13.9367C124.674 13.72 124.585 13.4738 124.496 13.2374C124.457 13.1389 124.427 13.0404 124.408 12.9517L124.368 12.7941L124.221 12.8631C124.152 12.8926 124.063 12.9222 123.984 12.9517C123.777 13.0207 123.571 13.0896 123.452 13.2571C122.989 13.8973 122.389 14.7346 121.886 15.6309C118.636 21.3636 115.828 27.3426 113.76 31.9129C110.775 38.5026 108.106 45.0627 105.831 51.4159C105.673 51.869 105.466 52.0463 105.023 52.1349C102.886 52.5388 100.709 52.982 98.6107 53.4154L97.7931 53.5829C97.0051 53.7405 96.2073 53.9178 95.3897 54.0951L94.4737 54.2921C94.5821 54.036 94.6904 53.7897 94.7987 53.5435C95.0942 52.8737 95.3799 52.2334 95.6459 51.5932C96.1876 50.3028 96.7293 49.0125 97.2809 47.7221C98.7781 44.1762 100.334 40.5021 101.792 36.8675C102.531 35.0255 103.28 32.8191 103.191 30.396C103.102 28.1207 101.053 26.1901 98.788 26.2689C96.7983 26.3379 95.0844 27.1062 93.2129 28.0222C88.2781 30.4453 83.9835 33.7056 80.0041 36.8379C77.9848 38.4238 75.8277 40.118 73.2076 42.1471C73.0697 42.2554 72.8826 42.3145 72.7053 42.3835L72.5674 42.4327C72.4098 42.4918 72.2522 42.5411 72.0847 42.5903C71.7695 42.6888 71.4445 42.7775 71.149 42.9449C70.6959 43.201 70.2723 43.5162 69.8586 43.8117C69.8094 43.8413 69.77 43.8807 69.7207 43.9102C69.8094 43.7625 69.9177 43.6344 70.0359 43.4867C70.5284 42.9055 70.5383 42.1471 70.0753 41.5561C69.7601 41.1522 69.2479 40.9158 68.716 40.9355C68.1546 40.9552 67.6424 41.2409 67.3075 41.7137C66.7165 42.5805 65.9088 42.7775 65.1208 42.8661C64.4411 42.9449 64.0865 43.3291 63.8009 43.7329C63.3379 44.4027 62.8454 45.0725 62.3726 45.7127C62.0673 46.1264 61.7619 46.5401 61.4664 46.9538C61.3778 47.0819 61.3187 47.2297 61.2694 47.3675V47.3774L61.2005 47.3183C61.2005 47.1706 61.2005 47.0326 61.2005 46.8849C61.2005 46.5205 61.2103 46.1363 61.1906 45.762C61.1611 45.0528 61.0429 44.3338 60.4223 43.8807C60.1367 43.664 59.6836 43.4571 59.2699 43.4867C58.9646 43.5162 58.6789 44.0678 58.6395 44.3535C58.4129 45.7029 57.7333 46.9046 56.5612 48.0275C55.3201 49.2193 54.01 50.3915 52.6901 51.5045C52.2272 51.8985 51.6657 52.2039 51.1141 52.4994C50.9861 52.5683 50.8679 52.6373 50.7398 52.7062C50.6118 52.7752 50.4443 52.8047 50.267 52.8343C50.2276 52.8441 50.1784 52.8441 50.139 52.854C50.0602 52.3221 50.2375 51.9675 50.533 51.5932C51.7741 50.027 52.9856 48.4412 54.1282 46.8849C54.5025 46.3727 54.8374 45.762 55.1625 45.0134C55.2905 44.7179 55.2117 44.2648 55.0541 44.0087C54.7783 43.5458 54.4336 43.27 54.0199 43.1813C53.5471 43.0927 53.0053 43.27 52.4636 43.6935C50.2473 45.4074 48.7304 47.7024 47.8242 50.7264C47.7356 51.012 47.6371 51.209 47.5189 51.3272C46.2778 52.5388 45.017 53.7503 43.7069 54.9816C43.5099 55.1687 43.2932 55.346 43.0864 55.5233C43.0667 55.543 43.047 55.5529 43.0273 55.5726C43.047 55.4544 43.0864 55.346 43.1258 55.2377C44.8495 50.4506 47.0067 45.9295 49.4495 40.9355C49.5381 40.7484 49.8435 40.5711 50.0996 40.4923C51.2028 40.1574 52.3158 39.8323 53.419 39.5073C55.192 38.9852 57.034 38.4533 58.8168 37.8722C62.8257 36.572 66.8839 35.193 70.8042 33.8534L72.6462 33.223C72.9318 33.1245 73.1978 32.9472 73.444 32.7797C73.5524 32.7009 73.6706 32.6221 73.7888 32.5532L73.8873 32.4941L73.7395 32.1099L73.6312 32.1296C65.3966 33.3806 58.1864 34.8187 51.5869 36.5129C51.6953 36.2371 51.8036 35.9711 51.912 35.715C52.2272 34.9369 52.5227 34.1981 52.8379 33.4692C53.1925 32.6615 53.025 31.9129 52.3355 31.2431C52.0006 30.9181 51.6362 30.7802 51.2619 30.8294C50.8974 30.8787 50.5625 31.1151 50.336 31.4992C49.282 33.2525 48.1099 34.9664 46.987 36.6311L46.2482 37.7146C46.13 37.882 45.8936 38.0396 45.6572 38.1184C44.1403 38.5617 42.6234 39.0049 41.0967 39.4482C39.2252 39.9899 37.2848 40.5514 35.3837 41.1128C34.4184 41.3985 33.4433 41.7235 32.4977 42.0486C31.8968 42.2554 31.296 42.4524 30.6853 42.6494C30.4095 42.7381 30.2322 42.8661 30.1534 43.0434C30.0746 43.2207 30.1041 43.4276 30.2322 43.6935C30.3011 43.8314 30.3602 43.9792 30.4193 44.1368C30.5178 44.383 30.6163 44.6391 30.7739 44.8657C30.9315 45.1021 31.2467 45.2991 31.5521 45.368C31.8574 45.437 32.2022 45.368 32.4977 45.2892C34.576 44.7672 36.7233 44.2156 39.0775 43.595C39.7768 43.4079 40.4762 43.2207 41.1755 43.0237L41.9832 42.7972L20.2148 66.0529C18.5206 64.3292 16.3437 62.9207 13.3887 61.6303C12.6894 61.325 11.9703 61.0492 11.271 60.7832C10.5322 60.4976 9.77378 60.2021 9.04489 59.8869C7.56739 59.2368 6.09975 58.5079 4.7306 57.8085C4.28735 57.582 4.0214 57.1584 3.87365 56.4295C3.57815 54.9717 3.95246 53.6124 4.34646 52.46C5.4004 49.4163 7.15369 46.6879 8.89714 44.186C12.6598 38.7784 17.0726 33.4594 22.4015 27.9237C30.1435 19.8861 37.1863 13.8481 44.5639 8.90341C47.509 6.93341 51.0649 4.73687 55.1625 3.40712C55.6648 3.23967 56.1967 3.13132 56.7089 3.01312C56.9256 2.96387 57.1325 2.91462 57.3492 2.86537L57.3886 2.91462C57.2802 3.11162 57.1719 3.31847 57.0635 3.51547C56.8173 3.98827 56.5513 4.48077 56.2558 4.93387C54.1282 8.18436 51.5771 11.0113 48.9373 13.8678C46.593 16.3992 44.2487 18.911 41.8945 21.4326C38.4372 25.146 34.8518 28.9776 31.3649 32.7797C29.6904 34.602 28.1538 36.6015 26.6665 38.5321L26.568 38.6602C25.78 39.6846 25.8883 39.9111 26.8733 40.7188L26.962 40.7878C27.0506 40.8567 27.1294 40.9158 27.1885 40.9946C27.356 41.2113 27.5234 41.3197 27.7007 41.3295C27.8977 41.3394 28.0652 41.231 28.272 40.9946L28.469 40.7582C29.0896 40.0293 29.7298 39.2807 30.3996 38.5814C32.4878 36.4045 34.576 34.2277 36.6741 32.0508C40.9095 27.6479 45.2928 23.0972 49.548 18.5662C52.6113 15.3059 55.4481 11.8781 57.5757 9.24816C58.3637 8.28286 59.4078 6.76596 59.9397 5.04222C60.3633 3.66322 60.1564 2.26452 59.3684 1.28938C58.61 0.343778 57.3787 -0.0994669 55.9012 0.0187327C54.8473 0.107382 53.6948 0.373333 52.3749 0.826432C47.5583 2.50093 43.3129 5.20967 40.161 7.38651C34.448 11.3166 28.8532 15.9757 23.0318 21.6099C15.3981 29.0072 9.64573 35.6461 4.9079 42.5017C3.1349 45.0627 1.36191 47.8896 0.396613 51.1499C-0.617935 54.5679 0.307965 57.1387 3.24326 59.0102C4.6518 59.9066 6.2081 60.7438 7.90229 61.5023C9.08429 62.0342 10.3057 62.5168 11.4877 62.9798C12.5712 63.4132 13.6941 63.8564 14.7776 64.3292C16.2945 64.999 17.575 66.1219 18.6979 67.7865C18.0675 68.5548 17.4272 69.3034 16.7968 70.0619C15.3883 71.7364 13.9403 73.4798 12.5515 75.2036C10.0693 78.2965 6.88774 82.4334 4.38585 87.0826C3.4107 88.8852 2.46511 90.8749 2.15976 93.1305C1.91351 94.9429 2.43556 96.253 3.58801 96.7258C4.91775 97.2675 5.9914 97.5335 6.9567 97.563C9.26159 97.632 11.202 96.4401 12.7879 95.2778C16.3733 92.638 19.2396 89.0132 21.5544 84.1867C22.7757 81.6553 23.5342 79.0845 23.8395 76.5629C24.2138 73.3321 23.5933 70.5741 21.9188 68.1411L43.8153 44.1959C43.7956 44.2451 43.7759 44.2845 43.7562 44.3338C43.4311 45.0528 43.1061 45.7719 42.781 46.4909C42.0226 48.1555 41.2346 49.8793 40.5057 51.5932C39.8359 53.1692 39.176 54.8732 39.0775 56.7349C39.0184 57.7987 39.2843 58.2025 40.2989 58.6359C40.5944 58.764 40.8209 58.8723 41.0179 59.0004C42.0029 59.6111 42.5742 59.7293 43.5395 58.8822C44.623 57.9267 45.6671 56.8826 46.6718 55.8779L47.0658 55.4839C47.509 55.0407 47.9227 54.5777 48.3364 54.1148C48.5039 53.9276 48.6615 53.7503 48.8289 53.5632C48.888 53.5927 48.9471 53.6223 49.0161 53.6518C49.1934 53.7405 49.351 53.8193 49.4889 53.9276C50.1587 54.4694 50.9664 54.5482 51.7445 54.1443C52.5916 53.7109 53.2319 53.2578 53.7145 52.7752C54.7488 51.7409 55.7633 50.6377 56.7385 49.5739C57.1226 49.1504 57.5166 48.7367 57.9007 48.3131C57.9697 48.2343 58.0387 48.1556 58.1372 48.0472C58.0879 49.1602 58.61 49.8694 59.7624 50.2831C59.8215 50.3028 59.8708 50.3422 59.9397 50.3915L60.0086 50.4407C60.9444 51.1105 61.4861 51.0416 62.1559 50.1846C62.9341 49.1799 63.6728 48.1161 64.3919 47.0917C64.5889 46.8159 64.776 46.5401 64.973 46.2643C65.1503 46.0082 65.3178 45.7423 65.4852 45.4862C65.6724 45.1907 65.8694 44.8952 66.0664 44.6096C66.1944 44.4323 66.3323 44.3338 66.4407 44.3338C66.5293 44.3338 66.618 44.4027 66.7066 44.5308C67.7901 46.156 69.1987 46.4909 70.883 45.5355C71.2376 45.3385 71.5824 45.1119 71.9173 44.9051C72.1931 44.7278 72.4689 44.5505 72.7447 44.3929C72.9023 44.3042 73.0697 44.255 73.1091 44.2648C73.7888 44.7672 74.4093 44.4618 74.9215 44.0875C76.2907 43.1025 77.6992 42.088 79.0486 40.9946L79.157 40.906C82.6833 38.0593 86.3179 35.1142 90.2284 32.6615C92.7106 31.1052 95.4193 29.5391 98.4137 28.623C98.7683 28.5147 99.1426 28.4359 99.5366 28.367C99.6745 28.3374 99.8124 28.3078 99.9601 28.2783C99.9601 28.4359 99.97 28.5935 99.9798 28.7412C100.009 29.1352 100.029 29.48 99.9404 29.7854C99.8222 30.1892 99.7139 30.5832 99.6055 30.987C99.182 32.5335 98.7387 34.1292 98.1083 35.6165C95.7641 41.1424 93.2917 46.7174 90.8982 52.1152L89.598 55.0604C89.5192 55.2377 89.2335 55.4051 89.0168 55.4544C75.8868 58.6655 65.2193 61.2659 55.4481 63.6299C52.7985 64.2701 50.1094 64.9005 47.4992 65.5112C45.7557 65.915 44.0123 66.3287 42.2787 66.7424C41.7862 66.8606 41.3922 66.9985 41.0573 67.1758C40.7421 67.3433 40.7323 67.5501 40.7421 67.6388C40.7717 67.8161 40.9293 67.9441 41.1657 67.9934C41.3134 68.0229 41.4612 68.0525 41.6089 68.082C42.2295 68.2101 42.8795 68.3381 43.4804 68.2396C47.1643 67.5994 51.1732 67.2645 55.7436 67.2054C59.1615 67.166 62.6583 67.363 66.4407 67.7964C70.558 68.279 74.1926 69.2049 77.5514 70.6529C79.3835 71.4409 80.9595 72.3175 82.3681 73.3518L82.3188 73.4897C82.2696 73.6276 82.2203 73.7655 82.1711 73.8935L82.0036 74.3368C78.5365 83.3987 74.9412 92.7759 71.8779 102.163C70.5383 106.27 69.0312 111.146 68.0167 116.15C67.9576 116.436 67.9182 116.731 67.8886 117.017C67.8689 117.145 67.8591 117.283 67.8394 117.411L67.8197 117.529L68.2629 117.647L68.3122 117.558C68.3811 117.44 68.4501 117.332 68.519 117.224C68.6668 116.977 68.8244 116.721 68.9426 116.455C69.3267 115.539 69.7207 114.633 70.1049 113.717C71.2376 111.067 72.3999 108.329 73.4834 105.61C76.074 99.1291 78.6743 92.5297 81.1959 86.1567C82.3188 83.3101 83.4417 80.4733 84.5646 77.6365C84.7321 77.2031 84.9192 76.7697 85.1064 76.3166L85.3132 75.8241C87.6378 78.2768 89.2138 80.9363 90.1299 83.9503C90.8785 86.4128 91.0558 89.0329 91.174 91.2886C91.2134 92.1652 91.302 93.1305 91.4399 94.3027C91.4793 94.6671 91.5877 94.9035 91.765 95.0316C91.893 95.1301 92.0605 95.1596 92.2476 95.1301L92.3264 95.1202C93.272 94.9626 94.257 94.7952 94.7396 93.7215C94.8086 93.5639 94.8874 93.4162 94.9662 93.2684C95.0844 93.0419 95.2125 92.8055 95.3011 92.5592C95.5474 91.8894 95.8035 91.2196 96.0497 90.5498C96.7096 88.7867 97.3991 86.9644 97.9704 85.1422C101.044 75.3907 104.531 64.3292 108.52 53.7109C108.677 53.2972 108.884 53.1298 109.308 53.0313C111.022 52.6668 112.736 52.3024 114.44 51.9379C116.114 51.5735 117.789 51.2189 119.473 50.8643C120.231 50.7067 120.99 50.5688 121.788 50.421C122.093 50.3619 122.398 50.3127 122.723 50.2536C122.457 51.3666 122.871 52.1152 123.994 52.5191C124.093 52.5585 124.191 52.6373 124.299 52.7161L124.388 52.785C124.95 53.2086 125.56 53.2184 126.151 52.8146C127.008 52.2236 127.501 51.3666 127.599 50.2831C127.658 49.5936 127.934 49.2883 128.594 49.1504C128.761 49.1208 128.919 49.0814 129.087 49.042L129.441 48.9632L129.372 48.6086H128.791L131.766 44.7475C131.647 45.2006 131.51 45.6536 131.382 46.1166C131.066 47.2099 130.751 48.3328 130.534 49.4656C130.397 50.1649 130.298 51.0416 130.741 51.6424C131.037 52.0463 131.529 52.2827 132.248 52.3713C132.317 52.3812 132.386 52.4009 132.445 52.4304C133.125 52.7949 133.775 52.6865 134.425 52.066C134.681 51.8197 134.947 51.5636 135.184 51.2878C137.301 48.717 138.976 45.8605 140.512 43.1518C140.995 42.2948 141.478 41.428 141.951 40.5612C142.029 40.4233 142.108 40.2854 142.177 40.1475L140.7 44.5308C138.907 49.8497 137.114 55.1786 135.322 60.5074C135.213 60.8226 135.065 60.9507 134.711 61.0098L133.48 61.2462C130.948 61.719 128.318 62.2213 125.757 62.7434C122.989 63.3147 120.222 63.8958 117.454 64.477C114.479 65.1073 111.504 65.7279 108.53 66.3386C108.411 66.3681 108.283 66.4075 108.155 66.4469C107.683 66.5947 107.269 66.7227 106.904 66.2401C106.806 66.1022 106.54 66.1514 106.53 66.1514L106.284 66.2007C105.781 66.2992 105.269 66.3977 104.767 66.5257C104.59 66.575 104.383 66.7917 104.343 66.9788C104.265 67.363 104.511 67.8358 104.757 68.151C105.043 68.5056 105.368 68.7223 105.653 68.7321L105.89 68.742C106.579 68.7715 107.298 68.7912 107.988 68.6829C110.706 68.2692 113.455 67.8062 116.163 67.3137C119.325 66.7424 122.526 66.1416 125.629 65.5703C127.511 65.2255 129.382 64.8709 131.263 64.5262C131.973 64.3981 132.692 64.28 133.421 64.1618C133.696 64.1125 133.972 64.0731 134.248 64.0238C132.721 69.658 131.007 76.031 130.328 82.3941L130.318 82.5024L130.83 82.6699L130.879 82.5615C130.928 82.4433 130.988 82.3251 131.037 82.2069C131.155 81.9508 131.273 81.6947 131.372 81.4287C131.815 80.168 132.268 78.9072 132.711 77.6464C134.159 73.5685 135.656 69.3527 137.075 65.1862C137.498 63.9352 137.981 63.2753 139.439 63.1177C141.675 62.8813 143.93 62.507 146.117 62.1524C147.368 61.9455 148.649 61.7387 149.919 61.5515C153.859 60.9802 157.74 60.468 160.675 60.0937C165.522 59.4633 169.265 59.0004 172.791 58.5867C176.179 58.1927 179.637 57.8184 182.976 57.4539L185.192 57.2175C188.344 56.8728 191.919 56.4886 195.426 56.134C199.839 55.6908 203.414 55.346 206.694 55.0505C208.467 54.8929 210.27 54.7452 212.013 54.6073C213.343 54.4989 214.673 54.4004 216.003 54.2822C216.347 54.2527 216.682 54.1837 217.007 54.1049C217.155 54.0754 217.313 54.036 217.46 54.0163L217.569 53.9966L217.549 53.6124L217.441 53.6026C217.106 53.573 216.781 53.5238 216.446 53.4844C215.727 53.3957 214.988 53.2972 214.249 53.2874L213.461 53.2775C210.359 53.2381 207.157 53.1987 204.005 53.2775C199.75 53.3957 195.505 53.5927 191.397 53.8587C187.29 54.1345 183.143 54.5186 178.908 54.9323C174.948 55.3165 170.89 55.7499 166.507 56.2621C162.616 56.7152 159.07 57.1683 155.672 57.6411C152.155 58.1336 148.58 58.6852 145.122 59.2072L142.266 59.6406C141.468 59.7588 140.67 59.8967 139.833 60.0445C139.518 60.1036 139.193 60.1528 138.868 60.2119L144.088 45.5946C144.226 45.6734 144.364 45.7522 144.492 45.831C144.866 46.0477 145.231 46.2545 145.546 46.5106C146.196 47.0129 146.905 47.0918 147.673 46.7273C148.314 46.422 148.983 46.0575 149.702 45.5946C150.116 45.3286 150.52 45.0233 150.835 44.7868C150.934 44.7179 151.022 44.649 151.101 44.58C151.269 44.6982 151.426 44.8066 151.584 44.9051C151.948 45.1513 152.303 45.3877 152.618 45.6537C153.258 46.1954 153.928 46.1658 154.637 45.5748C155.15 45.1513 155.642 44.7081 156.135 44.2747C156.322 44.1072 156.499 43.9496 156.686 43.7822C158.311 45.0824 159.08 45.6536 160.882 44.0481C161.06 43.8905 161.237 43.7428 161.414 43.5852C161.542 43.4768 161.68 43.3586 161.808 43.2503C162.242 42.876 162.685 42.4918 163.108 42.1175L163.581 41.7038C164.852 42.7676 166.014 43.5162 167.482 43.7034C167.59 43.7132 167.728 43.8314 167.836 43.9201C169.373 45.2104 170.447 45.1907 171.796 43.861C172.505 43.1616 173.126 42.3441 173.727 41.5561C173.993 41.2113 174.258 40.8666 174.524 40.5218C174.593 40.4332 174.662 40.3347 174.751 40.2165L174.761 40.1968C175.017 40.7287 175.48 40.9355 175.903 41.1128C176.081 41.1916 176.238 41.2606 176.396 41.3492C177.125 41.7925 177.824 41.8122 178.592 41.4083C178.73 41.3295 178.986 41.3197 179.085 41.3886C179.873 41.9008 180.691 41.8614 181.577 41.2606C182.04 40.9454 182.493 40.5908 182.926 40.246C183.084 40.1278 183.232 39.9998 183.389 39.8816C183.389 39.8914 183.399 39.9013 183.399 39.9111C183.468 40.0687 183.547 40.2362 183.705 40.3248C184.168 40.5908 184.66 40.8272 185.172 41.0143C185.418 41.103 185.586 41.0537 185.684 40.9946C185.842 40.906 185.941 40.7287 185.98 40.4923C186.019 40.2263 186.069 39.9505 186.118 39.655L186.167 39.3891C186.226 39.4186 186.295 39.458 186.354 39.4876C186.6 39.6156 186.827 39.7338 187.073 39.8323L187.27 39.9111C187.605 40.049 187.96 40.1968 188.324 40.2165C189.122 40.2657 189.861 40.246 190.531 40.1672C194.264 39.6944 197.367 39.2906 200.587 38.8079C203.119 38.4336 205.69 38.0298 208.182 37.6358C210.112 37.3304 212.043 37.0251 213.974 36.7296C214.663 36.6212 215.353 36.5227 216.052 36.4144C219.027 35.9514 222.11 35.4786 225.153 35.1043C227.241 34.8482 229.369 34.6709 231.438 34.5035C232.413 34.4247 233.398 34.3459 234.373 34.2572C234.668 34.2277 234.954 34.1883 235.25 34.1587C235.387 34.139 235.515 34.1193 235.653 34.1095L235.781 34.0898L235.653 33.7746ZM208.152 21.4621C203.365 25.2544 198.164 28.6427 193.141 31.9228L192.156 32.563C190.934 33.3609 189.723 34.1686 188.482 34.996C188.009 35.3112 187.526 35.6264 187.044 35.9514C187.083 35.8529 187.123 35.7741 187.162 35.6855C188.098 33.6564 189.427 31.7652 191.22 29.8937C196.864 23.9936 203.621 19.4527 211.294 16.4091C211.816 16.2022 212.388 16.0545 212.929 15.9067C213.166 15.8476 213.392 15.7885 213.629 15.7196L213.649 15.7491C213.589 15.8476 213.53 15.9461 213.481 16.0545C213.333 16.3204 213.176 16.5962 212.998 16.8425C211.639 18.7041 209.787 20.1718 208.152 21.4621ZM177.164 39.7929C177.164 39.7338 177.154 39.6846 177.164 39.6255L177.194 39.3103C177.204 39.2118 177.213 39.1133 177.223 39.0148C177.223 39.1428 177.223 39.2807 177.223 39.4088C177.233 39.5368 177.204 39.6649 177.164 39.7929ZM172.554 39.852C172.052 40.709 171.382 41.497 170.515 42.2357C170.584 42.1077 170.653 41.9895 170.732 41.8713C171.195 41.034 171.648 40.246 172.554 39.852ZM150.707 42.5509L147.654 44.4914C148.383 43.3882 149.643 42.5411 150.54 42.5411C150.589 42.5312 150.648 42.5411 150.707 42.5509ZM88.4357 57.7691L82.7325 72.3175C80.6936 70.9976 78.5463 69.9437 76.1528 69.0867C73.4736 68.1313 70.5777 67.4516 67.0514 66.9592C62.7371 66.3583 58.344 66.1908 54.2267 66.112L88.4357 57.7691ZM104.885 54.0852C102.088 61.9455 99.6449 70.0028 97.2809 77.7941C95.9019 82.3251 94.4836 87.0137 93.0159 91.6038C92.9962 91.3575 92.9667 91.1113 92.947 90.8749C92.8583 89.8997 92.7697 88.9049 92.6515 87.9199C92.0802 83.0343 89.8935 78.72 86.1603 75.0755C85.8057 74.7308 85.7565 74.5042 85.9436 74.0807C88.3569 68.4957 90.8095 62.7827 93.2227 57.0993C93.3606 56.7743 93.5281 56.6364 93.8531 56.5576C95.8822 56.0946 97.9113 55.6317 99.9404 55.1687L104.59 54.1148C104.659 54.0951 104.737 54.0951 104.836 54.0852C104.865 54.0852 104.875 54.0852 104.885 54.0852ZM19.0525 79.5376C17.2992 84.6595 14.6298 89.0526 11.1134 92.5888C10.1087 93.6033 8.86759 94.4504 7.68559 95.2286C7.25219 95.5142 6.69075 95.662 6.149 95.7999C5.9914 95.8393 5.8338 95.8787 5.6762 95.9279C5.4792 95.987 5.3216 95.9772 5.2034 95.9082C5.0655 95.8294 4.967 95.6718 4.9079 95.4256C4.60255 94.2436 4.83895 93.101 5.11475 92.1357C5.755 89.8308 6.92715 87.7918 8.08944 85.9302C10.9952 81.281 14.4821 76.9667 17.8212 72.9972C18.294 72.4357 18.7767 71.8644 19.2889 71.2734L19.8503 70.6135C20.4216 73.4306 20.1655 76.2772 19.0525 79.5376Z" fill="white"/>
</svg>
